
<!-- Generator: visioncortex VTracer 0.6.4 -->
<svg version="1.1" xmlns="http://www.w3.org/2000/svg" viewBox="0 0 500 500" preserveAspectRatio="xMidYMid meet">
<path d="M0 0 C164.67 0 329.34 0 499 0 C499 164.67 499 329.34 499 499 C334.33 499 169.66 499 0 499 C0 334.33 0 169.66 0 0 Z " fill="#000000" transform="translate(1,1)"/>
<path d="M0 0 C8.663 -0.089 17.326 -0.151 25.99 -0.187 C28.806 -0.198 31.621 -0.216 34.437 -0.24 C53.796 -0.397 72.694 0.1 91.382 5.669 C92.238 5.919 93.094 6.17 93.976 6.429 C112.903 12.256 128.855 22.214 143.82 35.044 C144.676 35.764 145.531 36.485 146.413 37.227 C172.016 59.393 188.15 93.746 191.82 127.044 C192.1 132.027 192.155 136.991 192.132 141.981 C192.13 142.639 192.128 143.297 192.126 143.975 C192.074 153.769 191.527 162.602 188.82 172.044 C188.399 173.684 187.982 175.324 187.566 176.965 C181.258 201.129 170.48 220.549 153.82 239.044 C153.139 239.82 152.458 240.596 151.757 241.395 C128.965 265.878 93.92 280.958 60.82 283.044 C54.416 283.227 48.006 283.17 41.6 283.157 C39.627 283.157 37.653 283.157 35.679 283.157 C30.415 283.158 25.151 283.152 19.887 283.145 C14.94 283.139 9.992 283.139 5.044 283.138 C-9.406 283.133 -23.855 283.119 -38.305 283.106 C-70.604 283.085 -102.903 283.065 -136.18 283.044 C-136.18 216.714 -136.18 150.384 -136.18 82.044 C-131.96 83.099 -130.499 84.167 -127.243 86.919 C-126.283 87.728 -125.322 88.538 -124.333 89.372 C-123.823 89.805 -123.314 90.239 -122.789 90.686 C-121.124 92.091 -119.438 93.467 -117.747 94.84 C-104.688 105.519 -104.688 105.519 -102.18 113.044 C-99.597 138.958 -101.063 165.645 -101.112 191.64 C-101.122 197.789 -101.127 203.938 -101.132 210.087 C-101.142 222.072 -101.159 234.058 -101.18 246.044 C-75.204 245.794 -49.229 245.532 -23.253 245.248 C-12.542 245.131 -1.831 245.019 8.881 244.925 C14.849 244.871 20.817 244.809 26.785 244.737 C30.096 244.698 33.406 244.664 36.717 244.64 C67.55 244.41 93.48 238.881 117.82 219.044 C118.608 218.42 119.397 217.796 120.21 217.153 C135.461 204.462 144.379 186.778 149.82 168.044 C150.171 166.854 150.171 166.854 150.531 165.641 C157.311 140.83 152.045 112.128 139.623 89.99 C132.582 78.105 123.915 68.333 112.82 60.044 C111.636 59.121 111.636 59.121 110.429 58.18 C100.734 50.941 89.997 46.365 78.382 43.231 C77.669 43.036 76.955 42.841 76.22 42.641 C61.385 38.919 46.563 38.798 31.371 38.954 C27.839 38.99 24.307 39.01 20.775 39.026 C10.746 39.075 0.716 39.147 -9.313 39.235 C-15.478 39.289 -21.643 39.323 -27.809 39.345 C-30.147 39.358 -32.485 39.378 -34.822 39.405 C-38.086 39.444 -41.348 39.458 -44.612 39.466 C-46.046 39.492 -46.046 39.492 -47.509 39.519 C-54.362 39.499 -59.982 38.14 -65.02 33.262 C-65.382 32.695 -65.745 32.128 -66.118 31.544 C-66.498 30.976 -66.878 30.409 -67.27 29.825 C-69.616 25.235 -69.917 20.085 -69.18 15.044 C-66.393 8.463 -61.725 3.9 -55.18 1.044 C-53.201 0.765 -53.201 0.765 -51.076 0.725 C-49.856 0.695 -49.856 0.695 -48.611 0.665 C-47.723 0.653 -46.834 0.641 -45.919 0.63 C-44.494 0.6 -44.494 0.6 -43.04 0.57 C-39.858 0.509 -36.675 0.463 -33.493 0.419 C-32.394 0.401 -31.294 0.383 -30.161 0.365 C-22.178 0.237 -14.194 0.142 -6.21 0.064 C-4.14 0.043 -2.07 0.022 0 0 Z " fill="#7D4CDB" transform="translate(212.180419921875,97.9564208984375)"/>
<path d="M0 0 C4.224 0.014 8.449 0.007 12.673 0.004 C19.747 0.001 26.822 0.015 33.896 0.038 C42.067 0.065 50.238 0.066 58.409 0.054 C66.302 0.044 74.194 0.05 82.087 0.064 C85.435 0.07 88.783 0.07 92.131 0.065 C96.064 0.06 99.996 0.07 103.929 0.092 C105.37 0.097 106.811 0.098 108.252 0.093 C110.22 0.087 112.188 0.101 114.156 0.117 C115.256 0.119 116.356 0.122 117.49 0.124 C123.275 0.869 126.188 4.059 129.632 8.504 C132.78 12.472 136.007 16.284 139.444 20.004 C145.127 26.184 150.78 32.508 155.444 39.504 C154.623 39.511 154.623 39.511 153.786 39.517 C130.611 39.697 107.436 39.878 84.261 40.085 C83.59 40.091 82.918 40.097 82.226 40.103 C75.478 40.164 68.73 40.225 61.982 40.286 C48.957 40.406 35.931 40.52 22.906 40.602 C16.615 40.643 10.324 40.694 4.033 40.759 C0.656 40.793 -2.722 40.819 -6.1 40.832 C-23.72 40.904 -40.453 41.174 -54.306 53.629 C-62.058 61.885 -65.061 73.649 -64.802 84.711 C-63.941 94.481 -59.494 102.821 -53.243 110.254 C-43.201 118.662 -34.411 121.969 -21.323 121.889 C-20.235 121.895 -19.148 121.9 -18.027 121.905 C-15.679 121.915 -13.33 121.918 -10.981 121.915 C-7.249 121.911 -3.519 121.925 0.212 121.943 C8.144 121.98 16.075 121.994 24.007 122.004 C33.181 122.016 42.354 122.038 51.528 122.084 C55.179 122.098 58.83 122.094 62.481 122.089 C91.251 122.156 113.658 127.753 134.566 148.622 C151.675 166.832 156.198 187.399 155.819 211.508 C155.145 229.49 147.344 245.151 135.444 258.504 C134.779 259.264 134.114 260.023 133.429 260.805 C120.562 274.601 101.629 283.859 82.762 285.014 C80.623 285.088 78.483 285.145 76.343 285.188 C75.099 285.221 73.855 285.254 72.573 285.289 C49.726 285.836 26.853 285.613 4.002 285.573 C-2.616 285.563 -9.234 285.558 -15.852 285.553 C-28.754 285.543 -41.655 285.526 -54.556 285.504 C-54.721 283.914 -54.884 282.324 -55.047 280.734 C-55.138 279.848 -55.229 278.963 -55.323 278.051 C-55.841 272.382 -55.74 266.692 -55.743 261.004 C-55.755 259.731 -55.768 258.457 -55.78 257.145 C-55.782 255.933 -55.784 254.722 -55.786 253.473 C-55.79 252.374 -55.794 251.275 -55.799 250.143 C-55.556 247.504 -55.556 247.504 -53.556 245.504 C-51.269 245.254 -51.269 245.254 -48.353 245.253 C-46.699 245.245 -46.699 245.245 -45.011 245.237 C-43.795 245.241 -42.579 245.245 -41.326 245.249 C-39.366 245.243 -37.406 245.238 -35.446 245.232 C-33.334 245.228 -31.222 245.228 -29.11 245.23 C-24.7 245.233 -20.29 245.218 -15.88 245.201 C-3.337 245.154 9.207 245.13 21.75 245.124 C28.674 245.12 35.597 245.102 42.521 245.068 C46.893 245.048 51.265 245.046 55.637 245.057 C59.022 245.06 62.406 245.037 65.791 245.019 C66.985 245.027 68.179 245.035 69.409 245.043 C82.477 244.916 94.042 241.51 103.632 232.434 C112.731 222.833 114.885 213.272 114.655 200.297 C114.037 189.17 109.166 180.811 101.194 173.192 C90.651 164.323 77.183 163.19 63.893 163.265 C62.247 163.262 62.247 163.262 60.567 163.259 C58.202 163.255 55.838 163.256 53.473 163.261 C49.716 163.266 45.96 163.257 42.204 163.243 C31.529 163.206 20.855 163.187 10.18 163.199 C3.632 163.206 -2.916 163.186 -9.465 163.153 C-11.944 163.145 -14.423 163.146 -16.903 163.157 C-42.709 163.264 -63.184 157.383 -82.556 139.504 C-98.757 122.521 -106.123 101.416 -105.905 78.185 C-105.452 61.175 -99.311 44.745 -88.556 31.504 C-87.901 30.687 -87.246 29.87 -86.571 29.028 C-63.686 2.05 -33.206 -0.138 0 0 Z " fill="#7D4CDC" transform="translate(187.555584192276,35.49562954902649)"/>
<path d="M0 0 C24.085 0 24.085 0 30.207 4.691 C34.582 9.79 36.5 14.491 38 21 C38.623 20.455 38.623 20.455 39.258 19.9 C45.867 14.904 52.031 15.603 60 16.188 C61.252 16.258 62.503 16.328 63.793 16.4 C66.864 16.576 69.932 16.777 73 17 C73 13.37 73 9.74 73 6 C76.63 6 80.26 6 84 6 C84 9.63 84 13.26 84 17 C85.98 17 87.96 17 90 17 C90 18.32 90 19.64 90 21 C90.649 20.455 90.649 20.455 91.311 19.9 C97.61 15.24 102.914 15.557 110.5 16.188 C111.609 16.258 112.717 16.328 113.859 16.4 C116.576 16.576 119.287 16.776 122 17 C122.025 20.969 122.043 24.939 122.055 28.908 C122.06 30.259 122.067 31.61 122.075 32.962 C122.088 34.9 122.093 36.839 122.098 38.777 C122.103 39.945 122.108 41.113 122.114 42.316 C122 45 122 45 121 46 C113.053 47.231 105.04 47.287 97.014 47.35 C95.454 47.367 93.894 47.394 92.334 47.432 C90.059 47.487 87.787 47.509 85.512 47.523 C84.817 47.546 84.122 47.569 83.406 47.592 C79.708 47.576 78.283 47.276 75.593 44.655 C72.934 40.223 72.891 36.906 72.938 31.812 C72.947 30.54 72.956 29.268 72.965 27.957 C72.976 26.981 72.988 26.005 73 25 C72.34 25 71.68 25 71 25 C70.67 31.93 70.34 38.86 70 46 C65.655 46.319 61.315 46.625 56.967 46.88 C55.232 46.986 53.499 47.112 51.766 47.242 C47.37 47.449 44.057 47.59 40.438 44.875 C37.911 41.894 37.109 39.688 36 36 C35.336 36.554 34.672 37.109 33.988 37.68 C33.105 38.404 32.222 39.129 31.312 39.875 C30.442 40.594 29.572 41.314 28.676 42.055 C19.406 48.794 13.142 46 0 46 C0 30.82 0 15.64 0 0 Z " fill="#FCFCFC" transform="translate(80,387)"/>
<path d="M0 0 C23.333 0 23.333 0 29.75 5.25 C36 12.889 36 12.889 36 17 C36.923 16.961 36.923 16.961 37.864 16.921 C40.659 16.817 43.454 16.752 46.25 16.688 C47.218 16.646 48.186 16.604 49.184 16.561 C56.376 16.437 56.376 16.437 59.562 19.312 C61.1 22.187 62.625 25.044 64 28 C66.978 25.447 68.294 22.486 70 19 C72 17 72 17 74.602 16.805 C75.599 16.828 76.597 16.851 77.625 16.875 C78.628 16.893 79.631 16.911 80.664 16.93 C81.435 16.953 82.206 16.976 83 17 C83 17.99 83 18.98 83 20 C84.134 19.34 85.269 18.68 86.438 18 C91.04 15.727 94.933 15.1 100 16 C104.022 17.5 107.439 19.626 111 22 C111.949 21.196 112.897 20.391 113.875 19.562 C118.723 15.452 122.766 15.579 129 16 C132.125 17 132.125 17 134 18 C132.125 23.75 132.125 23.75 131 26 C126.545 25.01 126.545 25.01 122 24 C122 24.66 122 25.32 122 26 C123.052 26.227 124.104 26.454 125.188 26.688 C129.255 27.894 131.512 29.456 134 33 C134.636 36.124 134.648 38.877 134 42 C132.124 44.502 130.761 45.619 128 47 C125.668 47.097 123.334 47.13 121 47.125 C119.113 47.129 119.113 47.129 117.188 47.133 C114 47 114 47 112 46 C107.516 45.804 107.516 45.804 103.109 46.488 C97.474 47.855 91.769 47.868 86.562 45.312 C81.624 40.856 79.5 37.376 78 31 C75.285 34.467 73.25 38.101 71.184 41.977 C70 44 70 44 68 46 C65.312 46.27 62.709 46.087 60 46 C59.708 45.46 59.415 44.92 59.114 44.364 C57.79 41.927 56.458 39.495 55.125 37.062 C54.665 36.212 54.205 35.362 53.73 34.486 C53.286 33.677 52.841 32.869 52.383 32.035 C51.77 30.912 51.77 30.912 51.145 29.766 C50.111 27.844 50.111 27.844 48 27 C48 33.27 48 39.54 48 46 C44.37 46 40.74 46 37 46 C36.67 41.71 36.34 37.42 36 33 C35.154 34.238 34.309 35.475 33.438 36.75 C29.454 42.071 25.51 44.372 19 46 C12.73 46 6.46 46 0 46 C0 30.82 0 15.64 0 0 Z " fill="#FCFCFC" transform="translate(216,387)"/>
<path d="M0 0 C8 1 8 1 9.84 2.34 C13.608 7.824 14.998 11.328 14 18 C12.253 21.442 9.847 23.545 6.438 25.375 C4 26 4 26 0 26 C0 17.42 0 8.84 0 0 Z " fill="#040304" transform="translate(227,397)"/>
<path d="M0 0 C8 1 8 1 10.938 3.5 C13.64 7.355 14.543 11.334 14 16 C12.461 19.799 10.604 22.948 7.137 25.223 C5 26 5 26 0 26 C0 17.42 0 8.84 0 0 Z " fill="#040305" transform="translate(91,397)"/>
<path d="M0 0 C3 0.875 3 0.875 4.875 2.625 C6.238 5.351 6.539 6.869 6 9.875 C3.727 12.41 2.323 12.835 -1.062 13.25 C-4 12.875 -4 12.875 -5.938 11.875 C-7.444 9.04 -7.001 6.838 -6.617 3.715 C-5.452 0.242 -3.385 -0.141 0 0 Z " fill="#F8F8F8" transform="translate(259,386.125)"/>
<path d="M0 0 C2 2 2 2 2.312 5.438 C2 9 2 9 0.875 10.938 C-1.922 12.522 -3.849 12.459 -7 12 C-9.352 9.883 -9.918 8.56 -10.375 5.438 C-10 3 -10 3 -8.938 1.188 C-5.944 -0.647 -3.422 -0.311 0 0 Z " fill="#060606" transform="translate(189,413)"/>
<path d="M0 0 C3.062 0.312 3.062 0.312 4.938 1.438 C6.628 4.255 6.598 6.1 6.062 9.312 C3.875 11.25 3.875 11.25 1.062 12.312 C-2.339 12.075 -3.507 11.743 -5.938 9.312 C-5.313 0.565 -5.313 0.565 0 0 Z " fill="#0A090A" transform="translate(132.9375,412.6875)"/>
<path d="M0 0 C1.052 0.639 2.104 1.279 3.188 1.938 C3.188 2.598 3.188 3.257 3.188 3.938 C1.062 3.797 -1.063 3.65 -3.188 3.5 C-4.371 3.419 -5.554 3.338 -6.773 3.254 C-9.812 2.938 -9.812 2.938 -11.812 1.938 C-14.371 2.027 -16.889 2.17 -19.438 2.375 C-20.144 2.427 -20.85 2.479 -21.578 2.533 C-23.323 2.663 -25.068 2.8 -26.812 2.938 C-27.473 1.618 -28.132 0.298 -28.812 -1.062 C-27.704 -1.123 -26.595 -1.184 -25.453 -1.246 C-23.99 -1.331 -22.526 -1.415 -21.062 -1.5 C-19.968 -1.559 -19.968 -1.559 -18.852 -1.619 C-14.746 -1.847 -14.746 -1.847 -10.714 -2.594 C-6.621 -3.603 -3.504 -1.992 0 0 Z " fill="#0C0B0D" transform="translate(335.8125,422.0625)"/>
<path d="M0 0 C1.32 0 2.64 0 4 0 C4 3.96 4 7.92 4 12 C2.68 11.34 1.36 10.68 0 10 C0 6.7 0 3.4 0 0 Z " fill="#040406" transform="translate(164,412)"/>
<path d="M0 0 C0.66 0 1.32 0 2 0 C2 1.98 2 3.96 2 6 C1.01 6 0.02 6 -1 6 C-0.67 4.02 -0.34 2.04 0 0 Z " fill="#100E14" transform="translate(151,412)"/>
</svg>